<?xml version="1.0" encoding="UTF-8"?>
<svg id="Layer_1" data-name="Layer 1" xmlns="http://www.w3.org/2000/svg" xmlns:xlink="http://www.w3.org/1999/xlink" viewBox="0 0 960 960">
  <defs>
    <style>
      .cls-1 {
        fill: url(#linear-gradient-2);
      }

      .cls-2, .cls-3 {
        fill: #5fa04e;
      }

      .cls-4 {
        fill: #333;
      }

      .cls-4, .cls-3 {
        fill-rule: evenodd;
      }

      .cls-5 {
        fill: url(#linear-gradient-3);
      }

      .cls-6 {
        fill: url(#linear-gradient);
      }
    </style>
    <linearGradient id="linear-gradient" x1="308.44" y1="529.27" x2="248.34" y2="407.42" gradientTransform="translate(0 962) scale(1 -1)" gradientUnits="userSpaceOnUse">
      <stop offset="0" stop-color="#3f873f"/>
      <stop offset=".33" stop-color="#3f8b3d"/>
      <stop offset=".64" stop-color="#3e9638"/>
      <stop offset=".93" stop-color="#3da92e"/>
      <stop offset="1" stop-color="#3dae2b"/>
    </linearGradient>
    <linearGradient id="linear-gradient-2" x1="271.3" y1="465.58" x2="439" y2="588.71" gradientTransform="translate(0 962) scale(1 -1)" gradientUnits="userSpaceOnUse">
      <stop offset=".14" stop-color="#3f873f"/>
      <stop offset=".4" stop-color="#52a044"/>
      <stop offset=".71" stop-color="#64b749"/>
      <stop offset=".91" stop-color="#6abf4b"/>
    </linearGradient>
    <linearGradient id="linear-gradient-3" x1="205.26" y1="474.41" x2="357.55" y2="474.41" gradientTransform="translate(0 962) scale(1 -1)" gradientUnits="userSpaceOnUse">
      <stop offset=".09" stop-color="#6abf4b"/>
      <stop offset=".29" stop-color="#64b749"/>
      <stop offset=".6" stop-color="#52a044"/>
      <stop offset=".86" stop-color="#3f873f"/>
    </linearGradient>
  </defs>
  <path class="cls-2" d="m824.38,573.18c-2.35,0-4.53-.63-6.57-1.73l-20.79-12.43c-3.13-1.73-1.56-2.36-.63-2.67,4.22-1.42,5-1.73,9.38-4.25.47-.31,1.09-.16,1.56.16l15.94,9.59c.62.31,1.41.31,1.88,0l62.38-36.34c.62-.31.94-.94.94-1.73v-72.51c0-.79-.32-1.42-.94-1.73l-62.38-36.18c-.63-.31-1.41-.31-1.88,0l-62.37,36.18c-.63.31-.94,1.1-.94,1.73v72.51c0,.63.31,1.42.94,1.73l17.04,9.91c9.22,4.72,15.01-.79,15.01-6.29v-71.57c0-.94.78-1.89,1.88-1.89h7.97c.94,0,1.88.79,1.88,1.89v71.57c0,12.43-6.72,19.66-18.45,19.66-3.59,0-6.41,0-14.38-3.93l-16.41-9.44c-4.06-2.36-6.57-6.76-6.57-11.48v-72.51c0-4.72,2.5-9.12,6.57-11.48l62.38-36.33c3.91-2.2,9.22-2.2,13.13,0l62.38,36.33c4.06,2.36,6.56,6.76,6.56,11.48v72.51c0,4.72-2.5,9.12-6.56,11.48l-62.38,36.33c-1.87.79-4.22,1.42-6.56,1.42Z"/>
  <path class="cls-2" d="m843.76,523.32c-27.36,0-32.99-12.58-32.99-23.28,0-.94.78-1.89,1.88-1.89h8.13c.94,0,1.72.63,1.72,1.57,1.25,8.34,4.84,12.43,21.42,12.43,13.13,0,18.76-2.99,18.76-10.07,0-4.09-1.57-7.08-22.05-9.12-17.04-1.73-27.67-5.51-27.67-19.19,0-12.74,10.63-20.29,28.45-20.29,20.01,0,29.86,6.92,31.11,22.02,0,.47-.16.94-.47,1.42-.32.31-.78.63-1.26.63h-8.28c-.77,0-1.56-.63-1.72-1.42-1.88-8.65-6.73-11.48-19.54-11.48-14.38,0-16.1,5.03-16.1,8.81,0,4.56,2.03,5.98,21.42,8.49,19.23,2.52,28.3,6.13,28.3,19.66s-11.41,21.71-31.1,21.71Z"/>
  <path class="cls-2" d="m933.81,447.19c0,6.61-5.48,12.11-12.05,12.11s-12.03-5.35-12.03-12.11,5.63-12.11,12.03-12.11,12.05,5.35,12.05,12.11Zm-22.2,0c0,5.66,4.53,10.22,10,10.22s10.17-4.72,10.17-10.22-4.53-10.07-10.17-10.07c-5.31,0-10,4.4-10,10.07Zm5.63-6.76h4.69c1.56,0,4.69,0,4.69,3.62,0,2.52-1.57,2.99-2.51,3.3,1.88.16,2.03,1.42,2.19,3.15.16,1.1.32,2.99.63,3.62h-2.82c0-.63-.47-4.09-.47-4.25-.15-.79-.47-1.1-1.4-1.1h-2.35v5.5h-2.66v-13.84Zm2.5,5.98h2.03c1.73,0,2.03-1.26,2.03-1.89,0-1.89-1.25-1.89-2.03-1.89h-2.18v3.77h.15Z"/>
  <path class="cls-4" d="m174.54,448.18c0-2.83-1.56-5.5-4.06-6.92l-66.12-38.54c-1.09-.63-2.34-.94-3.6-1.1h-.63c-1.25,0-2.5.47-3.6,1.1l-66.28,38.38c-2.5,1.42-4.06,4.09-4.06,7.08l.16,103.19c0,1.42.78,2.83,2.03,3.46,1.25.79,2.81.79,3.91,0l39.39-22.65c2.5-1.42,4.06-4.09,4.06-6.92v-48.29c0-2.83,1.56-5.51,4.06-6.92l16.73-9.75c1.25-.79,2.66-1.1,4.06-1.1s2.81.31,3.91,1.1l16.73,9.75c2.5,1.42,4.06,4.09,4.06,6.92v48.29c0,2.83,1.56,5.51,4.06,6.92l39.08,22.65c1.25.79,2.81.79,4.06,0,1.25-.63,2.03-2.04,2.03-3.46v-103.19Z"/>
  <path class="cls-4" d="m487.18,309.6v102.24c0,.95-.46,1.89-1.41,2.52-.93.47-1.87.47-2.81,0l-16.57-9.6c-2.5-1.41-5.47-1.41-7.97,0l-66.28,38.54c-2.5,1.42-4.06,4.09-4.06,6.92v76.92c0,2.83,1.56,5.51,4.06,6.92l66.28,38.54c2.5,1.41,5.47,1.41,7.97,0l66.28-38.54c2.5-1.41,4.07-4.09,4.07-6.92v-191.74l-49.56-25.8Zm-.15,192.22c0,.78-.31,1.41-.94,1.73l-22.67,13.21c-.62.31-1.41.31-2.03,0l-22.67-13.21c-.62-.32-.94-1.1-.94-1.73v-26.43c0-.79.32-1.41.94-1.73l22.67-13.21c.62-.32,1.41-.32,2.03,0l22.67,13.21c.63.32.94,1.1.94,1.73v26.43Z"/>
  <path class="cls-4" d="m713.69,474.76c2.5-1.42,3.91-4.09,3.91-6.92v-18.72c0-2.83-1.56-5.51-3.91-6.92l-65.81-38.38c-2.5-1.42-5.47-1.42-7.97,0l-66.28,38.54c-2.5,1.42-4.07,4.09-4.07,6.92v76.92c0,2.83,1.56,5.51,4.07,6.92l65.81,37.75c2.5,1.42,5.47,1.42,7.82,0l39.86-22.34c1.25-.63,2.03-2.05,2.03-3.46s-.78-2.83-2.03-3.46l-66.59-38.54c-1.25-.79-2.03-2.04-2.03-3.46v-24.07c0-1.42.78-2.83,2.03-3.46l20.79-11.95c1.25-.79,2.81-.79,4.06,0l20.79,11.95c1.25.79,2.03,2.05,2.03,3.46v18.88c0,1.42.78,2.83,2.03,3.46,1.25.79,2.81.79,4.06,0l39.39-23.12Z"/>
  <path class="cls-3" d="m642.88,471.15c.47-.31,1.1-.31,1.57,0l12.66,7.39c.47.31.78.79.78,1.42v14.79c0,.63-.31,1.1-.78,1.42l-12.66,7.39c-.47.31-1.1.31-1.57,0l-12.66-7.39c-.47-.31-.78-.79-.78-1.42v-14.79c0-.63.31-1.1.78-1.42l12.66-7.39Z"/>
  <path class="cls-6" d="m285.37,404.14c-2.5-1.42-5.47-1.42-7.97,0l-65.81,38.22c-2.5,1.42-3.91,4.09-3.91,6.92v76.6c0,2.83,1.56,5.51,3.91,6.92l65.81,38.22c2.5,1.42,5.47,1.42,7.97,0l65.81-38.22c2.5-1.42,3.91-4.09,3.91-6.92v-76.6c0-2.83-1.56-5.51-3.91-6.92l-65.81-38.22Z"/>
  <path class="cls-1" d="m351.34,442.36l-66.12-38.22c-.63-.31-1.41-.63-2.03-.79l-74.1,127.57c.63.79,1.41,1.42,2.19,1.89l66.13,38.22c1.88,1.1,4.06,1.42,6.1.79l69.56-128.04c-.47-.63-1.09-1.1-1.72-1.42Z"/>
  <path class="cls-5" d="m351.34,532.8c1.88-1.1,3.28-2.99,3.91-5.03l-72.38-124.58c-1.88-.31-3.91-.16-5.63.94l-65.66,38.07,70.81,129.93c.94-.16,2.03-.47,2.97-.94l65.97-38.38Z"/>
</svg>