<?xml version="1.0" encoding="UTF-8"?>
<svg id="Layer_1" data-name="Layer 1" xmlns="http://www.w3.org/2000/svg" viewBox="0 0 960 960">
  <defs>
    <style>
      .cls-1, .cls-2, .cls-3, .cls-4 {
        stroke-width: 0px;
      }

      .cls-2 {
        fill: #fff;
      }

      .cls-2, .cls-3, .cls-4 {
        fill-rule: evenodd;
      }

      .cls-3 {
        fill: #38bdf8;
      }

      .cls-4 {
        fill: #061025;
      }
    </style>
  </defs>
  <rect class="cls-1" width="960" height="480.04"/>
  <path class="cls-3" d="M124.3,640.75c-24.71,0-40.15,12.28-46.33,36.84,9.27-12.28,20.07-16.88,32.43-13.82,7.05,1.75,12.09,6.83,17.66,12.46,9.08,9.16,19.6,19.77,42.56,19.77,24.7,0,40.15-12.28,46.32-36.83-9.26,12.28-20.07,16.88-32.42,13.81-7.05-1.75-12.09-6.83-17.66-12.46-9.08-9.17-19.6-19.77-42.56-19.77ZM77.97,696c-24.7,0-40.15,12.28-46.32,36.84,9.27-12.28,20.07-16.88,32.42-13.82,7.05,1.75,12.09,6.83,17.66,12.46,9.08,9.16,19.6,19.77,42.56,19.77,24.7,0,40.15-12.28,46.32-36.83-9.27,12.28-20.07,16.88-32.43,13.82-7.05-1.75-12.09-6.84-17.66-12.46-9.08-9.16-19.6-19.77-42.56-19.77Z"/>
  <path class="cls-4" d="M309.57,687.31h-16.17v31.1c0,8.3,5.48,8.17,16.17,7.65v12.57c-21.65,2.59-30.25-3.37-30.25-20.22v-31.1h-12v-13.48h12v-17.41l14.08-4.15v21.56h16.17s0,13.48,0,13.48ZM371.2,673.83h14.08v64.81h-14.08v-9.33c-4.96,6.87-12.65,11.02-22.82,11.02-17.73,0-32.47-14.9-32.47-34.09s14.73-34.09,32.47-34.09c10.17,0,17.86,4.15,22.82,10.89,0,0,0-9.2,0-9.2ZM350.6,726.97c11.73,0,20.6-8.68,20.6-20.74s-8.87-20.74-20.6-20.74-20.6,8.68-20.6,20.74,8.87,20.74,20.6,20.74ZM408.75,664.11c-4.95,0-8.99-4.15-8.99-8.94.02-4.95,4.04-8.95,8.99-8.94,4.95,0,8.97,3.99,9,8.94,0,4.79-4.04,8.94-9,8.94ZM401.71,738.64v-64.81h14.08v64.81s-14.08,0-14.08,0ZM432.09,738.64v-94.62h14.08v94.62h-14.08ZM537.58,673.83h14.86l-20.47,64.81h-13.82l-13.56-43.68-13.69,43.68h-13.82l-20.47-64.81h14.86l12.65,44.71,13.69-44.71h13.43l13.56,44.71s12.78-44.71,12.78-44.71ZM569.91,664.11c-4.96,0-9-4.15-9-8.94.02-4.95,4.05-8.95,9-8.94,4.95,0,8.97,3.99,9,8.94,0,4.79-4.04,8.94-9,8.94ZM562.87,738.64v-64.81h14.08v64.81s-14.08,0-14.08,0ZM627.54,672.14c14.6,0,25.03,9.85,25.03,26.7v39.79h-14.08v-38.36c0-9.85-5.74-15.03-14.6-15.03s-16.56,5.44-16.56,18.66v34.74h-14.08v-64.81h14.08v8.3c4.3-6.74,11.34-9.98,20.21-9.98h0ZM719.34,647.91h14.08v90.72h-14.08v-9.33c-4.95,6.87-12.65,11.02-22.82,11.02-17.73,0-32.47-14.9-32.47-34.09s14.73-34.09,32.47-34.09c10.17,0,17.86,4.15,22.82,10.89v-35.12ZM698.74,726.97c11.73,0,20.6-8.68,20.6-20.74s-8.87-20.74-20.6-20.74-20.6,8.68-20.6,20.74,8.87,20.74,20.6,20.74ZM780.62,740.32c-19.69,0-34.42-14.9-34.42-34.09s14.73-34.09,34.42-34.09c12.78,0,23.86,6.61,29.08,16.72l-12.13,7c-2.87-6.09-9.25-9.98-17.08-9.98-11.47,0-20.21,8.68-20.21,20.35s8.74,20.35,20.21,20.35c7.82,0,14.21-4.02,17.34-9.98l12.13,6.87c-5.48,10.24-16.56,16.85-29.34,16.85h0ZM833.17,691.71c0,11.8,35.08,4.67,35.08,28.65,0,12.96-11.35,19.96-25.43,19.96-13.04,0-22.43-5.83-26.6-15.17l12.13-7c2.08,5.83,7.3,9.33,14.47,9.33,6.26,0,11.08-2.07,11.08-7.26,0-11.53-35.07-5.05-35.07-28.25,0-12.18,10.56-19.83,23.86-19.83,10.69,0,19.56,4.93,24.12,13.48l-11.87,6.61c-2.35-5.05-6.91-7.39-12.26-7.39s-9.52,2.2-9.52,6.87h0ZM893.28,691.71c0,11.8,35.07,4.67,35.07,28.65,0,12.96-11.34,19.96-25.43,19.96-13.04,0-22.42-5.83-26.6-15.17l12.13-7c2.09,5.83,7.3,9.33,14.47,9.33,6.26,0,11.08-2.07,11.08-7.26,0-11.53-35.07-5.05-35.07-28.25,0-12.18,10.56-19.83,23.86-19.83,10.69,0,19.56,4.93,24.12,13.48l-11.87,6.61c-2.35-5.05-6.91-7.39-12.25-7.39s-9.52,2.2-9.52,6.87h0Z"/>
  <path class="cls-3" d="M124.3,182.62c-24.71,0-40.15,12.28-46.33,36.84,9.27-12.28,20.07-16.88,32.43-13.82,7.05,1.75,12.09,6.83,17.66,12.46,9.08,9.16,19.6,19.77,42.56,19.77,24.7,0,40.15-12.28,46.32-36.83-9.26,12.28-20.07,16.88-32.42,13.81-7.05-1.75-12.09-6.83-17.66-12.46-9.08-9.17-19.6-19.77-42.56-19.77ZM77.97,237.87c-24.7,0-40.15,12.28-46.32,36.84,9.27-12.28,20.07-16.88,32.42-13.82,7.05,1.75,12.09,6.83,17.66,12.46,9.08,9.16,19.6,19.77,42.56,19.77,24.7,0,40.15-12.28,46.32-36.83-9.27,12.28-20.07,16.88-32.43,13.82-7.05-1.75-12.09-6.84-17.66-12.46-9.08-9.16-19.6-19.77-42.56-19.77Z"/>
  <path class="cls-2" d="M309.57,229.19h-16.17v31.1c0,8.3,5.48,8.17,16.17,7.65v12.57c-21.65,2.59-30.25-3.37-30.25-20.22v-31.1h-12v-13.48h12v-17.41l14.08-4.15v21.56h16.17s0,13.48,0,13.48ZM371.2,215.7h14.08v64.81h-14.08v-9.33c-4.96,6.87-12.65,11.02-22.82,11.02-17.73,0-32.47-14.9-32.47-34.09s14.73-34.09,32.47-34.09c10.17,0,17.86,4.15,22.82,10.89,0,0,0-9.2,0-9.2ZM350.6,268.84c11.73,0,20.6-8.68,20.6-20.74s-8.87-20.74-20.6-20.74-20.6,8.68-20.6,20.74,8.87,20.74,20.6,20.74ZM408.75,205.98c-4.95,0-8.99-4.15-8.99-8.94.02-4.95,4.04-8.95,8.99-8.94,4.95,0,8.97,3.99,9,8.94,0,4.79-4.04,8.94-9,8.94ZM401.71,280.51v-64.81h14.08v64.81s-14.08,0-14.08,0ZM432.09,280.51v-94.62h14.08v94.62h-14.08ZM537.58,215.7h14.86l-20.47,64.81h-13.82l-13.56-43.68-13.69,43.68h-13.82l-20.47-64.81h14.86l12.65,44.71,13.69-44.71h13.43l13.56,44.71s12.78-44.71,12.78-44.71ZM569.91,205.98c-4.96,0-9-4.15-9-8.94.02-4.95,4.05-8.95,9-8.94,4.95,0,8.97,3.99,9,8.94,0,4.79-4.04,8.94-9,8.94ZM562.87,280.51v-64.81h14.08v64.81s-14.08,0-14.08,0ZM627.54,214.02c14.6,0,25.03,9.85,25.03,26.7v39.79h-14.08v-38.36c0-9.85-5.74-15.03-14.6-15.03s-16.56,5.44-16.56,18.66v34.74h-14.08v-64.81h14.08v8.3c4.3-6.74,11.34-9.98,20.21-9.98h0ZM719.34,189.78h14.08v90.72h-14.08v-9.33c-4.95,6.87-12.65,11.02-22.82,11.02-17.73,0-32.47-14.9-32.47-34.09s14.73-34.09,32.47-34.09c10.17,0,17.86,4.15,22.82,10.89v-35.12ZM698.74,268.84c11.73,0,20.6-8.68,20.6-20.74s-8.87-20.74-20.6-20.74-20.6,8.68-20.6,20.74,8.87,20.74,20.6,20.74ZM780.62,282.19c-19.69,0-34.42-14.9-34.42-34.09s14.73-34.09,34.42-34.09c12.78,0,23.86,6.61,29.08,16.72l-12.13,7c-2.87-6.09-9.25-9.98-17.08-9.98-11.47,0-20.21,8.68-20.21,20.35s8.74,20.35,20.21,20.35c7.82,0,14.21-4.02,17.34-9.98l12.13,6.87c-5.48,10.24-16.56,16.85-29.34,16.85h0ZM833.17,233.59c0,11.8,35.08,4.67,35.08,28.65,0,12.96-11.35,19.96-25.43,19.96-13.04,0-22.43-5.83-26.6-15.17l12.13-7c2.08,5.83,7.3,9.33,14.47,9.33,6.26,0,11.08-2.07,11.08-7.26,0-11.53-35.07-5.05-35.07-28.25,0-12.18,10.56-19.83,23.86-19.83,10.69,0,19.56,4.93,24.12,13.48l-11.87,6.61c-2.35-5.05-6.91-7.39-12.26-7.39s-9.52,2.2-9.52,6.87h0ZM893.28,233.59c0,11.8,35.07,4.67,35.07,28.65,0,12.96-11.34,19.96-25.43,19.96-13.04,0-22.42-5.83-26.6-15.17l12.13-7c2.09,5.83,7.3,9.33,14.47,9.33,6.26,0,11.08-2.07,11.08-7.26,0-11.53-35.07-5.05-35.07-28.25,0-12.18,10.56-19.83,23.86-19.83,10.69,0,19.56,4.93,24.12,13.48l-11.87,6.61c-2.35-5.05-6.91-7.39-12.25-7.39s-9.52,2.2-9.52,6.87h0Z"/>
</svg>