<?xml version="1.0" encoding="UTF-8"?>
<svg id="Layer_1" data-name="Layer 1" xmlns="http://www.w3.org/2000/svg" viewBox="0 0 960 960">
  <defs>
    <style>
      .cls-1 {
        stroke: #000;
        stroke-width: 44.81px;
      }

      .cls-1, .cls-2, .cls-3 {
        stroke-miterlimit: 4.79;
      }

      .cls-2 {
        stroke-width: 4.98px;
      }

      .cls-2, .cls-4, .cls-5, .cls-3 {
        stroke: #fff;
      }

      .cls-2, .cls-3 {
        fill: #fff;
      }

      .cls-4 {
        stroke-linejoin: bevel;
      }

      .cls-4, .cls-5 {
        fill: none;
        stroke-linecap: round;
        stroke-width: 14.94px;
      }

      .cls-5 {
        stroke-linejoin: round;
      }

      .cls-6 {
        fill: #231f20;
      }

      .cls-6, .cls-7 {
        stroke-width: 0px;
      }

      .cls-3 {
        stroke-width: 2.49px;
      }

      .cls-7 {
        fill: #336791;
      }
    </style>
  </defs>
  <g>
    <path class="cls-1" d="M644.34,597.05c4.93-41.03,3.45-47.05,34.02-40.41l7.76.68c23.5,1.07,54.25-3.78,72.31-12.17,38.88-18.04,61.94-48.16,23.6-40.25-87.45,18.04-93.47-11.57-93.47-11.57,92.35-137.02,130.95-310.95,97.63-353.53-90.88-116.13-248.2-61.21-250.84-59.79l-.84.16c-17.28-3.59-36.62-5.73-58.34-6.08-39.58-.65-69.61,10.38-92.39,27.65,0,0-280.65-115.62-267.59,145.41,2.78,55.53,79.6,420.18,171.22,310.04,33.49-40.27,65.85-74.33,65.85-74.33,16.07,10.68,35.31,16.12,55.49,14.17l1.56-1.33c-.49,5-.27,9.89.62,15.68-23.6,26.37-16.66,31-63.85,40.71-47.74,9.84-19.69,27.36-1.39,31.94,22.2,5.55,73.56,13.42,108.27-35.16l-1.38,5.54c9.26,7.41,8.63,53.24,9.95,85.99,1.31,32.75,3.51,63.31,10.18,81.32,6.68,18.01,14.55,64.42,76.57,51.13,51.83-11.11,91.46-27.09,95.07-175.8"/>
    <path class="cls-7" d="M782.03,504.9c-87.46,18.04-93.48-11.57-93.48-11.57,92.35-137.03,130.95-310.97,97.64-353.54-90.89-116.12-248.21-61.2-250.84-59.78l-.85.15c-17.28-3.59-36.62-5.72-58.35-6.08-39.58-.65-69.6,10.38-92.38,27.65,0,0-280.66-115.62-267.6,145.41,2.78,55.53,79.59,420.18,171.22,310.04,33.49-40.27,65.85-74.33,65.85-74.33,16.07,10.68,35.31,16.12,55.48,14.17l1.57-1.33c-.49,5-.26,9.89.63,15.68-23.6,26.37-16.67,31-63.85,40.71-47.74,9.84-19.7,27.36-1.38,31.94,22.2,5.55,73.56,13.42,108.27-35.16l-1.38,5.54c9.25,7.41,15.74,48.18,14.65,85.15-1.09,36.96-1.82,62.34,5.47,82.16,7.29,19.82,14.55,64.42,76.58,51.13,51.83-11.11,78.69-39.89,82.43-87.9,2.65-34.13,8.65-29.09,9.03-59.6l4.81-14.45c5.55-46.27.88-61.2,32.81-54.25l7.76.68c23.5,1.07,54.26-3.78,72.32-12.17,38.88-18.04,61.93-48.16,23.6-40.25h0Z"/>
    <path class="cls-5" d="M457.7,531.42c-2.41,86.1.61,172.79,9.03,193.86,8.43,21.07,26.47,62.05,88.5,48.76,51.83-11.11,70.68-32.61,78.86-80.07,6.03-34.92,17.64-131.89,19.14-151.76M383.35,99.81S102.5-14.97,115.56,246.06c2.78,55.53,79.6,420.19,171.22,310.05,33.48-40.28,63.76-71.87,63.76-71.87M535.05,78.86c-9.72,3.05,156.22-60.66,250.53,59.84,33.31,42.57-5.29,216.51-97.64,353.54"/>
    <path class="cls-4" d="M687.94,492.24s6.02,29.62,93.48,11.57c38.32-7.91,15.26,22.21-23.61,40.26-31.9,14.8-103.41,18.6-104.58-1.86-3.01-52.78,37.64-36.75,34.71-49.97-2.65-11.91-20.83-23.6-32.85-52.75-10.5-25.44-143.96-220.56,37.01-191.58,6.63-1.37-47.2-172.14-216.57-174.92-169.33-2.78-163.77,208.24-163.77,208.24"/>
    <path class="cls-5" d="M410.3,510.3c-23.61,26.37-16.66,31-63.85,40.72-47.74,9.84-19.69,27.36-1.39,31.93,22.2,5.56,73.56,13.42,108.27-35.17,10.57-14.8-.06-38.4-14.58-44.42-7.01-2.9-16.39-6.55-28.45,6.94h0Z"/>
    <path class="cls-5" d="M408.75,509.84c-2.38-15.51,5.09-33.96,13.1-55.54,12.04-32.39,39.81-64.78,17.59-167.51-16.56-76.56-127.62-15.93-127.69-5.55-.07,10.38,5.02,52.61-1.86,101.8-8.98,64.18,40.84,118.47,98.2,112.91"/>
    <path class="cls-2" d="M382.33,279.68c-.5,3.55,6.49,13.01,15.61,14.27,9.1,1.27,16.89-6.12,17.38-9.67.49-3.55-6.49-7.45-15.61-8.72-9.11-1.27-16.9.58-17.38,4.12h0Z"/>
    <path class="cls-3" d="M659.53,272.45c.49,3.55-6.49,13.01-15.61,14.27-9.11,1.27-16.9-6.12-17.4-9.67-.48-3.55,6.5-7.45,15.61-8.72s16.9.58,17.39,4.12h0Z"/>
    <path class="cls-5" d="M692.1,247.91c1.5,27.81-5.99,46.75-6.93,76.36-1.4,43.03,20.52,92.28-12.5,141.6"/>
  </g>
  <path class="cls-6" d="M151.6,872.64h-35.18v-35.38h37.1c13.57,0,20.37,6.07,20.37,17.97s-7.43,17.42-22.27,17.42M176.89,836.84c-4.82-4.31-11.57-6.47-20.24-6.47l-50.39.27v84.65h10.15l-.09-36.04h37.49c9.4,0,16.8-2.16,22.2-6.47s8.1-10.31,8.1-17.97-2.41-13.65-7.23-17.97h0ZM242.58,897.53c-.97,2.77-2.63,5.25-4.82,7.2-4.55,4.45-11.48,6.65-20.89,6.65-8.42,0-14.83-2.16-19.41-6.47s-6.77-10.09-6.77-17.32c0-3.77.59-7.11,1.77-10.03,1.12-2.83,2.88-5.35,5.14-7.39,4.66-4.25,11.09-6.38,19.28-6.38,18.2,0,27.18,7.93,27.18,23.79,0,3.77-.52,7.08-1.55,9.93M244.34,866.29c-6.19-5.64-15.35-8.47-27.48-8.47-11.46,0-20.32,2.88-26.57,8.65-5.64,5.22-8.46,12.25-8.46,21.11s2.91,15.89,8.73,21.3c3.21,2.91,6.96,5.02,11.24,6.32,4.27,1.3,9.3,2.02,15.06,2.02,12.13,0,21.26-2.79,27.63-8.37,5.64-5.1,8.46-12.16,8.46-21.2s-2.85-16.2-8.56-21.3l-.05-.07ZM321.18,899.97c0,11.46-10.21,17.09-30.63,17.09-6.24,0-11.5-.4-15.77-1.19-4.27-.78-7.74-2.11-10.41-3.94-2.04-1.38-3.72-3.23-4.91-5.39-1.21-2.18-2-5.05-2.36-8.46l9.44-.09c0,4.48,1.66,7.78,4.99,9.91,3.57,2.55,9.89,3.82,18.96,3.82,14.27,0,21.41-3.57,21.41-10.73,0-4.18-2.39-7.06-7.18-8.63-.97-.3-6.74-1.11-17.32-2.41-10.58-1.3-17.16-2.47-19.77-3.5-5.63-2.24-8.45-6.27-8.45-12.09-.21-5.36,2.74-10.35,7.55-12.73,2.49-1.15,5.59-2.04,9.33-2.68,3.73-.64,8.05-.96,12.97-.96,19.65,0,29.48,6.17,29.48,18.5h-9.03c0-8.67-6.91-13.01-20.72-13.01-7.03,0-12.27.88-15.72,2.7-3.46,1.82-5.19,4.45-5.19,8.09,0,3.4,2.33,5.85,7,7.37,2.73.79,9,1.7,18.82,2.73,8.79.79,14.81,1.91,18.09,3.37,6.24,2.43,9.44,6.54,9.44,12.36v-.13ZM358.49,915.47l-3.86.54-2.41.18c-6.19,0-10.65-.9-13.38-2.7s-4.04-4.93-4.04-9.44v-38.62h-11.26v-5.68h11.19l.09-18.25h8.66v18.25h15.08v5.78l-15.08-.09v37.59c0,2.8.67,4.73,2.22,5.8s4.14,1.6,7.95,1.6c.54.07,1.15.04,1.82-.07s1.66-.34,3-.69l.09,5.8h-.07ZM418.38,902.58c-2.4,1.96-5.14,3.47-8.09,4.45-3.03,1.03-6.51,1.55-10.45,1.55-18.12,0-27.16-7.41-27.16-22.44,0-6.96,2.32-12.41,6.94-16.35,4.62-3.94,11.16-5.9,19.58-5.9s14.92,1.98,19.31,5.95,6.59,9.28,6.59,15.95c0,7.27-2.24,12.81-6.73,16.81M433.77,859.73h-8.66l-.09,9.55c-3.81-3.88-6.54-6.34-8.18-7.36-4.85-2.66-11.12-4-18.82-4-11.28,0-19.88,2.57-25.81,7.72-5.63,4.72-8.45,11.57-8.45,20.54,0,4.42.71,8.38,2.14,11.86s3.5,6.44,6.23,8.86c5.95,4.97,14.36,7.45,25.22,7.45,13.05,0,22.24-3.57,27.77-10.78v9.89c0,6.3-1.99,11.19-5.96,14.64s-10.5,5.19-19.59,5.19c-8.55,0-14.64-1.18-18.2-3.53-2.73-1.81-4.61-4.95-5.63-9.42h-8.86c.97,6.23,3.61,10.75,7.91,13.53,4.97,3.21,13.37,4.81,25.19,4.81,22.62,0,33.93-8.4,33.93-25.22v-53.8l-.13.07ZM480.61,865.36c-2.4-.41-4.83-.62-7.27-.63-14.23,0-21.35,7.8-21.35,23.42v27.15h-8.56l-.09-55.56,8.66.09v9.91h.45c1.46-3.91,3.75-6.87,6.91-8.88,3.45-2.02,8.6-2.93,15.45-2.93h5.82v7.43h-.01ZM488.67,884c1.09-6.32,3.55-11.2,7.36-14.67,2.49-2,5.3-3.5,8.45-4.52s6.7-1.5,10.64-1.5c7.7,0,13.98,2.11,18.86,6.34,4.88,4.23,7.38,9,7.38,14.36h-52.62M542.21,866.87c-3.17-3.12-7.04-5.43-11.28-6.75-4.49-1.46-9.73-2.19-15.74-2.19-11.22,0-19.92,2.61-26.11,7.82-6.19,5.21-9.28,12.31-9.28,21.3s2.97,16.18,8.91,21.38c6.42,5.82,15.49,8.73,27.19,8.73,4.66,0,8.98-.54,12.95-1.58s7.44-2.56,10.41-4.48c5.22-3.75,8.51-8.36,9.91-13.86h-9.44c-3.21,9.44-11.21,14.25-23.99,14.25-9.03,0-15.97-2.32-20.89-6.97-4.18-4.04-6.27-9.14-6.27-15.47h61.74c0-9.42-2.7-16.82-8.28-22.24l.16.07Z"/>
  <path class="cls-7" d="M641.98,892.59c0,16.49-13.3,24.73-39.9,24.73-15.94,0-27.58-2.83-34.91-8.53-6.07-4.67-9-11.79-9-21.37h10.78c0,15.4,11.05,23.1,33.19,23.1,10.61,0,18.28-1.58,23.01-4.72,4-2.78,6.07-7.14,6.07-13.08s-2.73-10-8.19-12.36c-3.1-1.35-10.65-2.88-22.65-4.82-15.1-2.3-24.89-4.6-29.37-6.9-6.48-3.39-9.73-9.15-9.73-17.27,0-7.57,2.7-13.21,8.28-16.9,5.93-4.06,16.13-6.09,30.56-6.09,26.08,0,39.11,8.66,39.11,25.98h-10.86c0-12.97-9.69-19.46-28.98-19.46-9.71,0-16.81,1.31-21.3,3.91-4.25,2.79-6.37,6.87-6.37,12.28s2.73,9.61,8.19,11.92c2.9,1.33,11.46,3.18,25.65,5.55,13.34,2,22.34,4.33,26.96,7.01,6.37,3.28,9.55,8.94,9.55,17.01h-.09ZM728.98,901.02c-4.04,3.22-8.63,5.67-13.56,7.22-5.04,1.6-10.68,2.41-16.93,2.41-12.81,0-23.05-3.37-30.91-10.31s-11.79-16.02-11.79-27.46,3.9-21.21,11.69-27.87c7.8-6.66,18.2-9.99,31-9.99s23.31,3.48,30.77,10.45c3.94,3.39,6.85,7.41,8.74,11.9,1.89,4.48,2.83,9.71,2.83,15.52,0,11.86-3.95,21.24-11.83,28.15M734.68,906.64c5.58-3.94,9.71-8.76,12.38-14.31s4.01-12.13,4.01-19.4c0-13.14-4.37-23.68-13.1-31.68-4.67-4.36-10.31-7.6-16.85-9.72-6.54-2.12-14.15-3.18-22.65-3.18-16.49,0-29.44,4-38.84,12-9.4,8-14.1,18.84-14.1,32.53s4.74,24.07,14.15,32.25c9.42,8.18,22.44,12.27,38.87,12.27,6.42,0,12.03-.44,16.82-1.3,4.79-.86,8.85-2.2,12.19-4l15.82,10.97,6.6-6.07-15.32-10.39v.04ZM831.26,915.29h-73.18v-84.75l10.06-.18v77.84h63.22l-.09,7.08h0Z"/>
</svg>